PathFileType	4	(X/Y/Z)	/mnt/data/output.trc
DataRate	CameraRate	NumFrames	NumMarkers	Units	OrigDataRate	OrigDataStartFrame	OrigNumFrames
100	100	10	17	mm	100	3471	3966
Frame#	Time	nosex	nosey	nosez	lefteyex	lefteyey	lefteyez	righteyex	righteyey	righteyez	leftearx	lefteary	leftearz	rightearx	righteary	rightearz	leftshoulderx	leftshouldery	leftshoulderz	rightshoulderx	rightshouldery	rightshoulderz	leftelbowx	leftelbowy	leftelbowz	rightelbowx	rightelbowy	rightelbowz	leftwristx	leftwristy	leftwristz	rightwristx	rightwristy	rightwristz	lefthipx	lefthipy	lefthipz	righthipx	righthipy	righthipz	leftkneex	leftkneey	leftkneez	rightkneex	rightkneey	rightkneez	leftanklex	leftankley	leftanklez	rightanklex	rightankley	rightanklez
		1	1	1	2	2	2	3	3	3	4	4	4	5	5	5	6	6	6	7	7	7	8	8	8	9	9	9	10	10	10	11	11	11	12	12	12	13	13	13	14	14	14	15	15	15	16	16	16	17	17	17
3471	34.71	-77.4242421347764	-559.477536642388	3260.4588071929657	-45.95939330644392	-590.2025140518085	3273.43838627666	-95.20794100353514	-590.0410826873883	3273.4425649193545	7.580361435400172	-584.3247044918163	3370.950333409052	-148.62683452662358	-586.5490802052045	3378.842084411224	89.14733439159572	-403.66607876743166	3436.4033975382554	-231.80059461295107	-412.4389474191704	3436.786554752572	140.9504786578443	-131.8162659067435	3432.8582154848496	-289.16580771435633	-152.20319251073124	3456.3133282567787	147.0859555288457	64.93335426677116	3376.4971435475886	-300.42739174037064	64.94807098113921	3395.276298773493	27.234046808019837	16.60901600640586	3455.756883481061	-183.4267647112556	13.216803842298887	3457.7534981516733	11.22926061490696	425.9192455692328	3535.1402697153426	-157.68445812595323	428.9596406695965	3529.01495024248	18.21991812924151	791.9560955497143	3545.073823330329	-144.49149783436124	792.6860349633481	3560.1720524265534
3472	34.72	-77.53394994390818	-559.4948377977436	3260.349546247553	-46.0504527850395	-590.2124694366585	3273.327000633339	-95.31709592313406	-590.0584473684765	3273.332852525027	7.921779138245848	-584.6233056972687	3373.6015376296764	-150.71676119787867	-586.4822235578376	3377.422231833672	89.13226795887807	-405.0283593573348	3436.246911750477	-231.81350962968537	-413.71216890703255	3436.71904182218	140.8487404959696	-131.8312883110042	3432.7497642916	-289.26390731618653	-152.2196204402464	3456.1993694893176	146.65599955333838	66.3565734177352	3376.127199740652	-300.17315381823056	66.60071880089666	3395.167049591758	27.13287993713341	16.591773442213434	3455.6477070882343	-183.52579905106091	13.199149858373666	3457.6420941973843	11.137103855348576	425.89944351842297	3535.0303642399035	-155.47044446080167	428.9960536572048	3528.973242793396	18.14218889268813	791.9350716270834	3544.9649132529385	-146.18473591926983	792.3389275897641	3561.8720878075865
3473	34.73	-77.51197509808794	-559.5044325608765	3260.3647664667856	-46.037198755860686	-590.218481421657	3273.34233764961	-95.29733572018426	-590.0684127673768	3273.349097565868	6.246237694207238	-584.8978408937999	3375.626811694512	-150.7056888201478	-586.4886489732071	3377.4404325987657	89.14318431414638	-405.03563816439583	3436.2593650040235	-231.80250119265105	-413.7196361676368	3436.7428708445777	140.8605897914835	-131.83916405470458	3432.763303239712	-289.2526886332165	-152.22781545484537	3456.227258310185	146.668504196232	66.34914610638455	3376.1415107209555	-300.1593685093517	66.5972987585771	3395.2077713496687	24.7287694294854	19.19680888611865	3456.3362620211497	-181.62920924105467	13.054602793707428	3459.4136534332456	11.14435243997888	425.8916540815076	3535.046820105885	-157.76771422565653	428.9311451127583	3528.9249130851977	18.145114421265305	791.9269567141082	3544.976793703675	-146.18257145905497	792.3303077539892	3561.8886322207404
3474	34.74	-77.352570156103	-560.9700136836163	3260.1451477139776	-46.07452271162213	-590.2217202772919	3273.2072572269904	-95.33627807701966	-590.0733166955139	3273.211557235597	6.204061744497864	-584.9025923044954	3375.503583026816	-150.74464975791466	-586.4929093110977	3377.3061794669147	89.09612080455813	-405.0376270902455	3436.147190816105	-231.8433015257885	-413.7193230342813	3436.60694109116	141.2665416074653	-132.15385507920462	3435.6860666500297	-289.0752462188297	-152.57119023716126	3459.1898411002207	146.95661326204436	64.92213707200187	3376.294564540003	-298.243598288547	65.01106107012481	3395.4541586038467	25.17876128756559	17.483170214194026	3459.235327738559	-183.5552065764074	13.202313839807656	3457.537486227176	11.661387350434572	427.325337072753	3534.918100561893	-155.50021779529914	429.0098152703426	3528.8744456958398	18.114078367445924	791.9584552122479	3544.8697893426056	-146.2117649210609	792.3629809792287	3561.772537930419
3475	34.75	-77.37077875076186	-560.9475941671529	3260.1485828030973	-46.07952605967786	-590.2069278986271	3273.2077202380965	-95.12103437475132	-591.5171797371861	3273.1352431731543	5.76013937568226	-584.6002177592559	3372.739497615565	-150.74982588566823	-586.4777091002159	3377.304166105554	89.09537740569998	-405.02359650984255	3436.1391871253386	-231.8479844983744	-413.7055456330161	3436.605231439109	140.8144012057263	-131.82258450830162	3432.647960826403	-289.07600497123855	-150.81859775300225	3456.2002706774424	146.9577527299839	64.93208047633222	3376.291392842102	-300.1928375994354	66.59980604850242	3395.2266121789708	27.10051809312804	16.603537275899736	3455.546357800625	-181.67186399282767	13.075506491705587	3459.2838910331902	11.663272092975292	427.3313142876145	3534.9157687844267	-155.49966238233998	429.01561452257175	3528.875390505131	18.116010134202806	791.9606392592585	3544.871119525611	-146.21046407007262	792.365167989241	3561.776298757503
3476	34.76	-75.31090438414456	-560.7149290783315	3257.902756238302	-46.197960537816186	-590.1919228567151	3273.179385775068	-95.27157327945451	-591.5020262605951	3273.1123773954528	5.636247628857895	-584.584156707475	3372.7029754527266	-150.8770038983612	-586.4638315206026	3377.273407911237	88.96841982622985	-405.008525207553	3436.092413220926	-231.9824749897417	-413.6962555209048	3436.571778276315	140.68499739790894	-131.81313357023993	3432.600652287916	-289.2137256924563	-150.8175470215218	3456.1673198091576	146.83302567593796	64.9408576083716	3376.24587470406	-297.6821731795821	68.3398139539197	3395.50793410868	26.966778037018116	16.608115626160888	3455.5010259398623	-183.69403548268107	13.212709107026155	3457.500785944046	10.971399526646412	425.9141266707995	3534.88965213654	-153.79464145477772	428.8905074752057	3530.531337459208	17.985338551669237	791.9495662653163	3544.829844504058	-146.34310362614505	792.3501829314964	3561.7387083652534
3477	34.77	-75.34382019202523	-560.6876753929869	3257.9249950858466	-46.22625673644076	-590.1695229618266	3273.199920466928	-95.30577429537946	-591.4738396074291	3273.13358772982	5.60637478553709	-584.5619735126702	3372.719650222454	-150.9062795169695	-586.440117842844	3377.287175319748	88.93869416730338	-404.9911027342495	3436.107679045964	-232.00910469386125	-413.676066366374	3436.582490148181	140.6582741468494	-131.8029109054076	3432.6174875361	-289.23621583373733	-150.80428734209602	3456.1774478361967	147.14095159360184	63.45299843263285	3376.390031384696	-297.7035257324202	68.32734265024057	3395.5596408556685	26.649310244761125	18.02802508449274	3455.2730745839717	-183.7166215070688	13.221792318486658	3457.5125411770423	11.504627269729356	427.3241838650547	3534.88205389496	-153.81566413231522	428.88849923443695	3530.54182611688	17.962723653422586	791.9370415880636	3544.8412584571347	-144.74723877104512	792.6634598755212	3559.936325850759
3478	34.78	-75.47928389783732	-560.6251848765787	3257.975780084905	-46.333124602904284	-590.1132820894065	3273.2456540879416	-95.43829881212172	-591.4097218016506	3273.185136776696	5.496477078369804	-584.5044125856502	3372.758602161951	-151.0052009482	-586.3830554642676	3377.3373376414133	86.79293377068215	-404.8398110335035	3434.5999373260283	-232.10288063535432	-413.6230170511863	3436.6313315746256	140.5417701817132	-131.75653543222563	3432.637369314928	-287.4425611193513	-150.91589708349494	3458.058263972062	147.0261521931391	63.49248082526891	3376.40833742476	-297.7890434299425	68.38617990854404	3395.567566030724	26.835234256556795	16.65677826954281	3455.5412802427504	-179.55230830935642	13.165625011176251	3459.384299820789	11.399025962477408	427.35259880144366	3534.9072517068994	-153.91135989974384	428.91592068145314	3530.5762642718246	17.858128766695295	791.9519171295821	3544.872517072811	-146.45871489501675	792.3531173629534	3561.7864074804866
3479	34.79	-75.54291916390629	-559.1571955677991	3258.1560194299614	-46.32700228090174	-590.086143546413	3273.274526360056	-95.43184563923148	-591.3791051338126	3273.213365426999	5.506512013749522	-584.4772254298668	3372.7853557322173	-150.99761832350447	-586.3539443517386	3377.3571472872363	86.80651547434363	-404.8164965387053	3434.624006606029	-232.09216586812505	-413.5968354155727	3436.644434584954	140.55726728755835	-131.74016545056517	3432.662393202585	-289.3127526796739	-150.73798025334332	3456.233446393689	147.04051781767518	63.50248035856737	3376.436209404053	-297.7812408556467	68.38782414565269	3395.580467902878	24.563247248361662	16.60114551360254	3455.944444259661	-179.5397927418222	13.180703770623287	3459.398452932892	10.85429882024888	425.9424088099318	3534.944119607136	-153.90078616207006	428.91946237381137	3530.589076783121	17.862647687077523	791.9436065036056	3544.891698479968	-146.4541051236116	792.3460207274865	3561.800911552513
3480	34.8	-75.56003076627177	-559.1832465405629	3258.182991494889	-46.33734847088238	-590.1090704004433	3273.3009015996763	-93.22915509248034	-591.195836758756	3271.059619404775	5.495266885480327	-584.5001248445683	3372.8143176771923	-151.0096372146325	-586.3768812788593	3377.385395756096	86.79483351711922	-404.837477633359	3434.6563181139186	-232.1053927393164	-413.61722414436895	3436.673455509112	140.54639004558774	-131.75677241827384	3432.693996169869	-289.32723371464044	-150.75457907889938	3456.2624415748846	147.0294178406019	63.48795991207836	3376.46659424381	-297.7947383952391	68.38017504810438	3395.6043563274025	26.836165657009712	16.655753097555532	3455.595347310913	-181.4386657945057	13.302679010062926	3457.684059585736	10.84072177488486	425.9343604880388	3534.976053987504	-153.9159298849051	428.9115372683068	3530.619424536133	17.849040120241348	791.9416579638084	3544.9217517175293	-146.46960459612825	792.3440056827936	3561.8298018997148
